PathFileType	4	(X/Y/Z)	Patient4_TMGait_0pt4_02_left_02.trc.trc
DataRate	CameraRate	NumFrames	NumMarkers	Units	OrigDataRate	OrigDataStartFrame	OrigNumFrames
72.538860103627	72.538860103627	5	33	mm	72.538860103627	53	       141
Frame#	Time	Sacral			L.Shoulder			Chest			R.Shoulder			Neck			R.ASIS			L.ASIS			R.Thigh.Superior			R.Thigh.Lateral			R.Thigh.Inferior			R.Patella			L.Thigh.Superior			L.Thigh.Lateral			L.Thigh.Inferior			L.Patella			L.Shank.Superior			L.Shank.Lateral			L.Shank.Inferior			R.Shank.Superior			R.Shank.Lateral			R.Shank.Inferior			R.Heel			R.Midfoot.Superior			R.Midfoot.Lateral			R.Toe			L.Heel			L.Midfoot.Lateral			L.Midfoot.Superior			L.Toe			L.Elbow			L.Wrist			R.Elbow			R.Wrist			
		X1	Y1	Z1	X2	Y2	Z2	X3	Y3	Z3	X4	Y4	Z4	X5	Y5	Z5	X6	Y6	Z6	X7	Y7	Z7	X8	Y8	Z8	X9	Y9	Z9	X10	Y10	Z10	X11	Y11	Z11	X12	Y12	Z12	X13	Y13	Z13	X14	Y14	Z14	X15	Y15	Z15	X16	Y16	Z16	X17	Y17	Z17	X18	Y18	Z18	X19	Y19	Z19	X20	Y20	Z20	X21	Y21	Z21	X22	Y22	Z22	X23	Y23	Z23	X24	Y24	Z24	X25	Y25	Z25	X26	Y26	Z26	X27	Y27	Z27	X28	Y28	Z28	X29	Y29	Z29	X30	Y30	Z30	X31	Y31	Z31	X32	Y32	Z32	X33	Y33	Z33	

53	3.256857142857	859.642973989769	1002.994459000446	433.042336303186	1039.487479328921	1438.159566183117	244.081264107387	1141.937314568072	1370.872901997169	405.550928561519	1055.590229520183	1440.516481695386	579.850960775794	1020.270884058119	1497.599234301067	400.804643344809	1093.191022433753	949.233666586390	544.132484448715	1072.636896224473	966.246498898591	270.437270407681	1181.969421919969	781.876425033027	517.227008497704	1147.789371062483	661.338311778668	597.474718366249	1238.795137399080	624.517212088044	519.489647596672	1263.420969006580	515.255449642829	544.267294458895	1127.158672045617	752.576345028790	300.583833750970	1039.172778427040	634.168357122889	247.202492986221	1125.279980372626	558.754342866102	310.669362112702	1126.161224657579	489.350642956949	322.832108190532	1097.268590014247	416.380432759623	316.690067294559	1005.246341919717	303.151064136879	266.810126040596	1051.273479816068	192.321617516305	342.035068228597	1192.468676007907	435.098557669935	555.196096035498	1075.640970387311	389.696729761748	621.138121187124	1067.048663479848	278.184864886448	575.880927741861	870.953710830693	209.515304362686	557.652094499129	1040.495182376964	150.730778466903	590.166838945480	932.990206815128	150.227079601064	629.147672107941	1106.332902408869	37.617923832252	614.879466734542	920.215151215832	39.098559142428	386.964984410242	994.164155160044	35.412972833387	306.080653225839	1077.638810344337	96.336025778966	332.940608319697	1206.431637955895	42.865777585578	305.014400492316	1060.390785943983	1100.136922201074	94.041153108433	1247.099951188965	914.633165959820	108.956259086038	1024.584960705382	1091.475559605008	696.677984520948	1095.920110977038	840.060944958608	704.618841693063	
54	3.270642857143	858.852527524843	1003.886987948276	431.369387829503	1041.087599996482	1438.961068554994	243.367483303645	1141.734482393054	1371.429348909574	405.803792677016	1053.769652545099	1441.274693547963	579.204611175908	1020.345715788695	1498.330968859527	400.018249478435	1091.726658845271	950.395352905637	543.885508555535	1072.471548403438	966.670957015931	270.112849815465	1181.407854811280	784.366666318359	516.870104116635	1148.377396033636	663.597509234026	597.586589464237	1239.146257990418	627.170138867961	519.296253279762	1265.343966827771	519.230997057121	544.446528075169	1124.841773669161	752.055425500909	300.083597285771	1035.460971720468	634.515335098819	246.528863479584	1120.757151426900	558.243806727807	309.890848262856	1120.946777940778	489.027324540843	322.003039055585	1091.954235230224	416.372344950893	315.880377258980	999.525730576620	303.284412002521	266.210419628158	1045.728518401691	192.415156083197	341.493135502214	1197.454068638729	437.194247458455	555.432652514531	1083.112874923537	386.356927524432	621.387756003228	1079.767036662022	274.537257650412	576.037803484257	887.229704148252	195.470970690781	557.658411237758	1059.406372140473	146.424686410521	590.292869969123	952.375512274570	140.173576084270	629.523349885736	1131.579109119255	37.888673637047	615.896849736378	914.628967907046	39.194476536812	386.869297304079	988.615911350451	35.388406839968	305.988908274876	1072.126531470946	96.313123677715	332.707156191970	1200.901129037882	42.785162483852	304.955598874649	1066.167014346759	1102.183701869509	91.905046840305	1258.180672844105	922.292113237702	107.666047677731	1012.520196177212	1093.988819261441	697.007512222563	1074.820627180636	840.302584093345	707.173202211809	
55	3.284428571429	858.062289037553	1004.781640509073	429.872879101215	1042.774053115906	1439.616372633254	242.744986238382	1141.608042647490	1371.901830027857	406.160075213166	1052.061673640456	1442.068290549125	578.606978799778	1020.485585308989	1498.996178231146	399.277007480052	1090.237370280782	951.406216982965	543.852296808627	1072.318834206613	967.029951573911	270.017997461864	1180.422738527018	786.266822904329	516.790394396644	1148.162917764498	665.327110586643	597.930150950031	1238.473742604642	628.989491565044	519.295833691492	1265.981783550529	522.690367417502	544.762169909210	1122.441721335675	751.537372567507	299.924260802396	1031.699118716777	634.892961769331	245.994173908052	1116.068588710529	557.750373072962	309.333092435104	1115.518513567650	488.727823234834	321.367785954154	1086.504742024116	416.393672609934	315.221873996707	993.758534180904	303.419310151770	265.755571396608	1040.161175719057	192.524159448770	341.065084571473	1201.741648680382	438.812593697658	555.806599451027	1090.668211575700	381.937061630995	621.923604795561	1093.213243542644	270.131232743075	576.376119068121	905.310800838974	179.838048703014	558.045196351536	1079.867710657003	141.512081879125	590.554393354539	973.715745383001	129.005925141588	630.152279107830	1158.711167563516	38.296858472184	616.861841007337	909.051010987111	39.272691012520	386.789927831168	983.064499355954	35.369255722673	305.916729870277	1066.605688125201	96.292987737577	332.516580338048	1195.362118090132	42.725167746503	304.902513629685	1071.700167349894	1104.053700261342	90.066401143026	1268.638877239056	929.677835340071	106.608342562994	1000.724996759253	1096.842983620533	697.251762795628	1054.627582870411	841.377234533582	709.143733745936	
56	3.298214285714	857.280128668490	1005.633227026052	428.559292250943	1044.501915970540	1440.080968788923	242.220723785423	1141.548880089393	1372.254321429060	406.611995161832	1050.487225247177	1442.847735812871	578.071201236451	1020.687029359639	1499.555315964682	398.591150558255	1088.737439487452	952.219407798396	544.030346750705	1072.213724463389	967.317173102022	270.128363016905	1178.984169797718	787.477607565689	516.988879825003	1147.066218116685	666.457438323862	598.488371136784	1236.724655730239	629.900352489038	519.493355702335	1265.287708685882	525.559826176919	545.174850164100	1120.004771481758	751.006189165988	300.088771017127	1027.948702751260	635.273729728413	245.598775640101	1111.278420423324	557.259639596989	309.004749084632	1109.947158721498	488.435835604265	320.946506236731	1080.986075006710	416.420511005699	314.732179485075	988.010080373484	303.538144411103	265.446879195080	1034.598237499238	192.629844546381	340.766098551720	1205.271128690750	439.990938637120	556.296917961211	1098.326219067883	376.663549871881	622.751686728653	1107.297504939444	265.296585267157	576.889850035583	925.245080115661	163.260211659702	558.840458015618	1101.723475576797	136.439428933703	590.930204742639	996.948022301164	117.302178420988	631.009421254974	1187.335887914326	39.185540330308	617.652743164009	903.484665676599	39.326597046863	386.727377167101	977.509916286583	35.353255757826	305.863977227015	1061.074885559179	96.274481671454	332.373613532457	1189.814805009688	42.686051910120	304.855839359714	1077.014428582911	1105.688631974634	88.524211134151	1278.480438930912	936.676763954080	105.778328935618	989.277410846891	1099.938886721617	697.366008009073	1035.400420658232	843.099343453450	710.577707612689	
57	3.312000000000	856.519815634134	1006.403198236681	427.434076123151	1046.227024952600	1440.324435917825	241.805684870600	1141.548268220258	1372.460731032254	407.154545573830	1049.064560689569	1443.568812064007	577.615390014312	1020.946360961344	1499.977840724981	397.976055894765	1087.243337646491	952.800446261176	544.414863164714	1072.187233068236	967.528754493194	270.420324307121	1177.058954437309	787.917795028169	517.468692675311	1145.005366246653	666.943177557770	599.243015599968	1233.861010935155	629.862803431896	519.897225091783	1263.241955517922	527.791041195544	545.644636542868	1117.574275302237	750.444776004897	300.552721081644	1024.266166168354	635.632914376237	245.342235929538	1106.446982245506	556.757300861250	308.908347530120	1104.301101039954	488.136570415731	320.750725779335	1075.457578556017	416.431700872422	314.421667799337	982.335174775332	303.626238293314	265.276607958320	1029.061035996850	192.715004324732	340.602668536463	1207.984508895657	440.795044776647	556.884117850384	1106.075132637415	370.798412982583	623.863301811250	1121.891274807145	260.386449337547	577.558041892122	946.997299508728	146.389038389954	560.028038778580	1124.779376242672	131.676285909532	591.396627828100	1021.939227510045	105.642823895407	632.038124724064	1217.047760373451	40.924729226499	618.150482753109	897.930874362767	39.351471699593	386.681257174598	971.951948084507	35.338001344521	305.829302355123	1055.533034711161	96.256581134741	332.279752133592	1184.259378847281	42.667024519002	304.816436063496	1082.129348777657	1107.045701233245	87.283954737948	1287.712498320066	943.191758571572	105.176708880248	978.256336034359	1103.175776165110	697.319629093876	1017.182166629746	845.289977479002	711.531368012839	
